<mxfile host="app.diagrams.net" modified="2022-11-22T21:05:16.273Z" agent="5.0 (Windows)" etag="WKaxErO-yraq-EcuPX3D" version="20.0.4" type="github">
  <diagram id="1-WsZu6R_i0gmAgSLc3U" name="Page-1">
    <mxGraphModel dx="1824" dy="540" grid="1" gridSize="10" guides="1" tooltips="1" connect="1" arrows="1" fold="1" page="1" pageScale="1" pageWidth="850" pageHeight="1100" math="0" shadow="0">
      <root>
        <mxCell id="0" />
        <mxCell id="1" parent="0" />
        <mxCell id="ah0IJTTXBp7sf0zQST2m-1" value="" style="rounded=0;whiteSpace=wrap;html=1;" vertex="1" parent="1">
          <mxGeometry x="-50" y="30" width="1280" height="630" as="geometry" />
        </mxCell>
        <mxCell id="ah0IJTTXBp7sf0zQST2m-3" value="" style="rounded=0;whiteSpace=wrap;html=1;" vertex="1" parent="1">
          <mxGeometry x="-50" y="30" width="1280" height="90" as="geometry" />
        </mxCell>
        <mxCell id="ah0IJTTXBp7sf0zQST2m-4" value="Username" style="text;html=1;strokeColor=none;fillColor=none;align=right;verticalAlign=middle;whiteSpace=wrap;rounded=0;" vertex="1" parent="1">
          <mxGeometry x="910" y="60" width="270" height="30" as="geometry" />
        </mxCell>
        <mxCell id="ah0IJTTXBp7sf0zQST2m-6" value="" style="rounded=1;whiteSpace=wrap;html=1;" vertex="1" parent="1">
          <mxGeometry x="340" y="52.5" width="580" height="47.5" as="geometry" />
        </mxCell>
        <mxCell id="ah0IJTTXBp7sf0zQST2m-7" value="Search..." style="text;html=1;strokeColor=none;fillColor=none;align=right;verticalAlign=middle;whiteSpace=wrap;rounded=0;" vertex="1" parent="1">
          <mxGeometry x="660" y="60" width="170" height="30" as="geometry" />
        </mxCell>
        <mxCell id="ah0IJTTXBp7sf0zQST2m-9" value="" style="rounded=1;whiteSpace=wrap;html=1;" vertex="1" parent="1">
          <mxGeometry x="850" y="52.5" width="70" height="47.5" as="geometry" />
        </mxCell>
        <mxCell id="ah0IJTTXBp7sf0zQST2m-10" value="" style="rounded=0;whiteSpace=wrap;html=1;" vertex="1" parent="1">
          <mxGeometry x="-50" y="30" width="70" height="630" as="geometry" />
        </mxCell>
        <mxCell id="ah0IJTTXBp7sf0zQST2m-12" value="" style="rounded=0;whiteSpace=wrap;html=1;" vertex="1" parent="1">
          <mxGeometry x="20" y="120" width="250" height="540" as="geometry" />
        </mxCell>
        <mxCell id="ah0IJTTXBp7sf0zQST2m-24" value="All Patients" style="rounded=0;whiteSpace=wrap;html=1;" vertex="1" parent="1">
          <mxGeometry x="310" y="160" width="300" height="50" as="geometry" />
        </mxCell>
        <mxCell id="ah0IJTTXBp7sf0zQST2m-25" value="Unassigned" style="rounded=0;whiteSpace=wrap;html=1;" vertex="1" parent="1">
          <mxGeometry x="900" y="160" width="290" height="50" as="geometry" />
        </mxCell>
        <mxCell id="ah0IJTTXBp7sf0zQST2m-26" value="Assigned" style="rounded=0;whiteSpace=wrap;html=1;" vertex="1" parent="1">
          <mxGeometry x="610" y="160" width="290" height="50" as="geometry" />
        </mxCell>
        <mxCell id="ah0IJTTXBp7sf0zQST2m-28" value="" style="rounded=0;whiteSpace=wrap;html=1;" vertex="1" parent="1">
          <mxGeometry x="310" y="210" width="880" height="410" as="geometry" />
        </mxCell>
        <mxCell id="ah0IJTTXBp7sf0zQST2m-29" value="&lt;table style=&quot;width:100%;height:100%;border-collapse:collapse;&quot; width=&quot;100%&quot; height=&quot;100%&quot; border=&quot;0&quot;&gt;&lt;tbody&gt;&lt;tr&gt;&lt;td align=&quot;center&quot;&gt;Garcia&lt;/td&gt;&lt;td align=&quot;center&quot;&gt;Renata&lt;/td&gt;&lt;td align=&quot;center&quot;&gt;11/30/96&lt;/td&gt;&lt;/tr&gt;&lt;tr&gt;&lt;td align=&quot;center&quot;&gt;Morales&lt;/td&gt;&lt;td align=&quot;center&quot;&gt;Leah&lt;/td&gt;&lt;td align=&quot;center&quot;&gt;04/20/99&lt;/td&gt;&lt;/tr&gt;&lt;tr&gt;&lt;td align=&quot;center&quot;&gt;Wilson&lt;/td&gt;&lt;td align=&quot;center&quot;&gt;Rosalyn&lt;/td&gt;&lt;td align=&quot;center&quot;&gt;06/21/94&lt;/td&gt;&lt;/tr&gt;&lt;/tbody&gt;&lt;/table&gt;" style="text;html=1;strokeColor=#c0c0c0;fillColor=none;overflow=fill;" vertex="1" parent="1">
          <mxGeometry x="330" y="230" width="840" height="370" as="geometry" />
        </mxCell>
      </root>
    </mxGraphModel>
  </diagram>
</mxfile>
